<?xml version="1.0" encoding="utf-8"?>
<!-- Generator: Adobe Illustrator 16.0.4, SVG Export Plug-In . SVG Version: 6.00 Build 0)  -->
<!DOCTYPE svg PUBLIC "-//W3C//DTD SVG 1.1//EN" "http://www.w3.org/Graphics/SVG/1.1/DTD/svg11.dtd">
<svg version="1.1" id="Ebene_1" xmlns="http://www.w3.org/2000/svg" xmlns:xlink="http://www.w3.org/1999/xlink" x="0px" y="0px"
	 width="283.46px" height="141.73px" viewBox="0 0 283.46 141.73" enable-background="new 0 0 283.46 141.73" xml:space="preserve">
<g>
	<path fill="#FBFBFB" d="M50.23,74.612c0-2.426,0-4.852,0-7.277c0.268-1.742,0.589-3.479,0.793-5.229
		c0.527-4.502,1.355-8.973,3.062-13.149c1.736-4.246,3.834-8.372,6.1-12.365c1.629-2.87,3.631-5.572,5.764-8.098
		c2.117-2.507,4.572-4.734,6.938-7.022c3.029-2.93,6.455-5.346,10.188-7.279c3.698-1.915,7.378-3.939,11.258-5.407
		c3.396-1.283,7.021-2.099,10.615-2.682c3.92-0.636,7.92-0.805,11.891-1.092c1.099-0.08,2.227,0.091,3.328,0.24
		c3.504,0.473,7.021,0.883,10.497,1.513c6.144,1.115,11.742,3.67,17.236,6.577c5.164,2.734,9.656,6.273,13.889,10.244
		c5.5,5.16,9.703,11.237,13.201,17.865c2.488,4.713,4.121,9.729,5.332,14.88c0.574,2.438,0.809,4.96,1.137,7.453
		c0.256,1.94,0.418,3.894,0.629,5.932c0.684,0,1.283,0,1.883,0c6.887,0,13.773,0.035,20.66-0.012
		c5.33-0.036,10.594,0.135,15.693,2.042c4.184,1.566,7.363,4.021,9.004,8.312c0.895,2.337,0.803,4.729,0.717,7.119
		c-0.162,4.506-1.887,8.3-5.775,10.772c-1.783,1.135-3.828,1.858-5.779,2.781c-0.004-0.004,0.094,0.131,0.223,0.181
		c2.99,1.154,4.635,3.744,5.77,6.37c2.262,5.227,4.027,10.665,6.014,16.012c0.893,2.408,1.822,4.805,2.734,7.207
		c0,0.173,0,0.347,0,0.52c-5.67,0-11.34,0-17.051,0c-1.447-4.797-2.746-9.521-4.322-14.152c-0.824-2.425-1.771-4.962-3.305-6.958
		c-2.701-3.52-6.791-2.93-10.758-2.764c0,7.989,0,15.854,0,23.745c-5.289,0-10.459,0-15.697,0
		c-0.184-20.446,0.184-40.812-0.225-61.166c-5.309,0-10.352,0-15.486,0c0,0.521,0.002,0.946,0,1.373
		c-0.092,12.461-0.127,24.922-0.326,37.381c-0.033,1.944-0.588,3.965-1.299,5.796c-1.053,2.711-2.949,4.862-5.969,5.366
		c-1.859,0.311-3.855,0.361-5.703,0.035c-2.75-0.483-4.619-2.255-5.629-4.942c-0.953-2.53-1.254-5.147-1.26-7.799
		c-0.031-11.912-0.014-23.825-0.014-35.738c0-0.499,0-0.997,0-1.463c-5.596,0-10.987,0-16.463,0c0,0.749-0.001,1.395,0,2.04
		c0,11.652-0.067,23.307,0.052,34.958c0.029,2.84,0.414,5.738,1.102,8.494c0.857,3.442,2.146,6.807,4.655,9.472
		c1.744,1.852,3.456,3.771,6.019,4.598c0.83,0.268,1.572,0.799,2.546,1.309c-1.072,0.474-1.959,0.856-2.839,1.256
		c-4.612,2.094-9.479,3.273-14.458,4.066c-1.357,0.216-2.698,0.539-4.047,0.812c-4.505,0-9.011,0-13.517,0
		c-0.17-0.096-0.331-0.248-0.513-0.278c-2.182-0.366-4.403-0.567-6.541-1.102c-3.168-0.794-6.373-1.585-9.386-2.811
		c-3.423-1.392-6.767-3.069-9.934-4.975c-3.274-1.969-6.423-4.202-9.386-6.615c-2.406-1.96-4.481-4.332-6.66-6.564
		c-2.975-3.049-5.391-6.521-7.37-10.276c-1.825-3.465-3.766-6.901-5.194-10.533c-1.904-4.837-2.814-9.973-3.475-15.134
		C50.615,77.169,50.414,75.892,50.23,74.612z M197.893,96.215c2.547,0,5.014,0.151,7.451-0.051c1.797-0.148,3.727-0.429,5.297-1.234
		c2.811-1.442,3.928-4.055,3.648-7.216c-0.232-2.646-1.363-4.727-3.873-5.839c-0.924-0.409-1.91-0.704-2.895-0.937
		c-3.156-0.746-6.357-0.73-9.629-0.586C197.893,85.644,197.893,90.823,197.893,96.215z"/>
</g>
</svg>
